<?xml version="1.0" encoding="UTF-8"?>
<svg version="1.1" xmlns="http://www.w3.org/2000/svg" width="32" height="32">
<path d="M0 0 C10.56 0 21.12 0 32 0 C32 10.56 32 21.12 32 32 C21.44 32 10.88 32 0 32 C0 21.44 0 10.88 0 0 Z " fill="#FCFCFD" transform="translate(0,0)"/>
<path d="M0 0 C1.31677734 0.00580078 1.31677734 0.00580078 2.66015625 0.01171875 C4.9375 0.3125 4.9375 0.3125 6.9375 2.3125 C7.2675 1.6525 7.5975 0.9925 7.9375 0.3125 C9.2575 0.3125 10.5775 0.3125 11.9375 0.3125 C11.9375 4.9325 11.9375 9.5525 11.9375 14.3125 C9.4625 13.8175 9.4625 13.8175 6.9375 13.3125 C6.6075 12.6525 6.2775 11.9925 5.9375 11.3125 C5.6075 12.3025 5.2775 13.2925 4.9375 14.3125 C3.14656809 14.39336147 1.35460372 14.45162702 -0.4375 14.5 C-1.93410156 14.55220703 -1.93410156 14.55220703 -3.4609375 14.60546875 C-4.31945312 14.50878906 -5.17796875 14.41210938 -6.0625 14.3125 C-8.04194936 11.34332597 -8.35600581 10.65547721 -8.375 7.3125 C-8.39175781 6.631875 -8.40851562 5.95125 -8.42578125 5.25 C-7.52710406 0.45705498 -4.38815384 -0.08401473 0 0 Z " fill="#935C9E" transform="translate(14.0625,8.6875)"/>
<path d="M0 0 C0 4.62 0 9.24 0 14 C-1.27875 14.061875 -2.5575 14.12375 -3.875 14.1875 C-4.59429688 14.22230469 -5.31359375 14.25710937 -6.0546875 14.29296875 C-6.69664063 14.19628906 -7.33859375 14.09960938 -8 14 C-10.54393252 10.18410122 -10.57737956 7.4700353 -10 3 C-7.66886341 -1.38802181 -5.36872984 0 0 0 Z " fill="#78C6E5" transform="translate(16,9)"/>
</svg>
